<svg xmlns="http://www.w3.org/2000/svg" viewBox="0 0 880 220" width="880" height="220" role="img" aria-label="knag">
  <!-- The knag wordmark: `knag` in DM Mono Light with the amber block cursor after it.
       Glyphs are outlines converted from public/fonts/dm-mono-latin-300.woff2, so this
       renders identically with no font available. Proportions are the design system's
       Wordmark component: 0.01em tracking, 0.14em gap, block 0.5em x 0.72em on the
       baseline. Regenerate rather than edit by hand. -->
  <rect width="880" height="220" fill="#11150F"/>
  <g fill="#D8D6CD">
    <path d="M303.67999999999995 138.0V68.88H310.4V110.64L331.23199999999997 90.384H339.87199999999996L317.888 111.6V112.176L342.46399999999994 138.0H334.11199999999997L310.4 113.03999999999999V138.0Z"/>
    <path d="M359.74399999999997 138.0V90.384H365.21599999999995L366.08 97.584H366.46399999999994Q368.38399999999996 94.22399999999999 372.55999999999995 91.728Q376.736 89.232 382.304 89.232Q391.03999999999996 89.232 395.35999999999996 94.368Q399.67999999999995 99.50399999999999 399.67999999999995 108.912V138.0H392.96V109.68Q392.96 103.056 389.984 99.312Q387.008 95.568 380.864 95.568Q374.912 95.568 370.688 99.648Q366.46399999999994 103.72800000000001 366.46399999999994 111.408V138.0Z"/>
    <path d="M434.23999999999995 139.152Q428.57599999999996 139.152 424.88 137.136Q421.18399999999997 135.12 419.40799999999996 131.76Q417.63199999999995 128.4 417.63199999999995 124.464Q417.63199999999995 116.976 423.15199999999993 113.28Q428.67199999999997 109.584 437.11999999999995 109.584H450.75199999999995V108.72Q450.75199999999995 102.0 447.53599999999994 98.592Q444.32 95.184 438.368 95.184Q433.376 95.184 430.15999999999997 97.344Q426.94399999999996 99.50399999999999 426.08 104.112H418.976Q419.45599999999996 99.312 422.192 96.0Q424.928 92.688 429.152 90.96000000000001Q433.376 89.232 438.368 89.232Q448.352 89.232 452.912 94.656Q457.472 100.08 457.472 108.72V138.0H451.712L451.03999999999996 130.32H450.46399999999994Q448.352 133.872 444.60799999999995 136.512Q440.864 139.152 434.23999999999995 139.152ZM435.296 133.008Q440.09599999999995 133.008 443.55199999999996 130.608Q447.008 128.208 448.88 124.368Q450.75199999999995 120.52799999999999 450.75199999999995 116.304V115.344H437.59999999999997Q430.496 115.344 427.568 117.84Q424.64 120.336 424.64 124.272Q424.64 128.304 427.328 130.656Q430.01599999999996 133.008 435.296 133.008Z"/>
    <path d="M495.87199999999996 123.792Q493.08799999999997 123.792 490.736 123.21600000000001Q488.38399999999996 122.64 486.464 121.68L482.71999999999997 126.384Q481.664 127.824 482.192 129.264Q482.71999999999997 130.704 485.024 130.704H497.59999999999997Q506.23999999999995 130.704 511.616 133.824Q516.992 136.944 516.992 144.336Q516.992 148.464 514.832 152.112Q512.672 155.76 508.06399999999996 158.016Q503.45599999999996 160.272 496.06399999999996 160.272Q486.08 160.272 480.128 156.528Q474.176 152.784 474.176 145.104Q474.176 142.128 475.616 139.776Q477.056 137.424 479.26399999999995 135.6Q476.38399999999996 133.968 475.664 130.56Q474.94399999999996 127.152 477.63199999999995 123.792L482.048 118.32Q477.44 113.52 477.44 106.512Q477.44 101.904 479.6 97.96799999999999Q481.76 94.032 485.888 91.632Q490.01599999999996 89.232 495.87199999999996 89.232Q499.712 89.232 502.976 90.384H520.736V95.952L511.328 96.24000000000001V96.816Q514.208 101.03999999999999 514.208 106.512Q514.208 111.024 512.048 115.00800000000001Q509.888 118.992 505.808 121.392Q501.72799999999995 123.792 495.87199999999996 123.792ZM495.87199999999996 117.648Q500.96 117.648 504.176 114.72Q507.392 111.792 507.392 106.512Q507.392 101.136 504.176 98.256Q500.96 95.376 495.87199999999996 95.376Q490.88 95.376 487.568 98.256Q484.256 101.136 484.256 106.512Q484.256 111.792 487.568 114.72Q490.88 117.648 495.87199999999996 117.648ZM481.08799999999997 145.104Q481.08799999999997 149.52 485.216 151.824Q489.344 154.128 496.06399999999996 154.128Q502.11199999999997 154.128 506.096 151.488Q510.08 148.848 510.08 144.624Q510.08 142.416 508.88 140.64Q507.67999999999995 138.864 504.75199999999995 137.76Q501.82399999999996 136.656 496.544 136.656H485.792Q481.08799999999997 139.824 481.08799999999997 145.104Z"/>
  </g>
  <rect x="538.88" y="68.88" width="48" height="69.12" fill="#FFB000"/>
</svg>
